<mxfile host="app.diagrams.net" agent="Mozilla/5.0 (Windows NT 10.0; Win64; x64) AppleWebKit/537.36 (KHTML, like Gecko) Chrome/140.0.0.0 Safari/537.36" version="28.1.2">
  <diagram name="Page-1" id="Z5onj9KdPykAqMKOFn0P">
    <mxGraphModel dx="1973" dy="1696" grid="0" gridSize="10" guides="1" tooltips="1" connect="1" arrows="1" fold="1" page="1" pageScale="1" pageWidth="850" pageHeight="1100" math="0" shadow="0">
      <root>
        <mxCell id="0" />
        <mxCell id="1" parent="0" />
        <mxCell id="vGDt-VPCg0rbHUkUBXjF-23" value="" style="swimlane;startSize=0;" parent="1" vertex="1">
          <mxGeometry x="-550" y="-160" width="440.00038105676657" height="310" as="geometry">
            <mxRectangle x="-1070" y="-500" width="65" height="90" as="alternateBounds" />
          </mxGeometry>
        </mxCell>
        <mxCell id="vGDt-VPCg0rbHUkUBXjF-24" value="&lt;b&gt;&lt;sub&gt;IDLE&lt;/sub&gt;&lt;/b&gt;" style="ellipse;whiteSpace=wrap;html=1;aspect=fixed;" parent="vGDt-VPCg0rbHUkUBXjF-23" vertex="1">
          <mxGeometry x="105" y="50" width="60" height="60" as="geometry" />
        </mxCell>
        <mxCell id="vGDt-VPCg0rbHUkUBXjF-25" value="&lt;b&gt;&lt;sub&gt;DISPENSE&lt;/sub&gt;&lt;/b&gt;" style="ellipse;whiteSpace=wrap;html=1;aspect=fixed;" parent="vGDt-VPCg0rbHUkUBXjF-23" vertex="1">
          <mxGeometry x="240" y="210" width="60" height="60" as="geometry" />
        </mxCell>
        <mxCell id="vGDt-VPCg0rbHUkUBXjF-26" value="&lt;b&gt;&lt;sub&gt;RETURN&lt;/sub&gt;&lt;/b&gt;&lt;div&gt;&lt;b&gt;&lt;sub&gt;COINS&lt;/sub&gt;&lt;/b&gt;&lt;/div&gt;" style="ellipse;whiteSpace=wrap;html=1;aspect=fixed;" parent="vGDt-VPCg0rbHUkUBXjF-23" vertex="1">
          <mxGeometry x="30" y="220" width="60" height="60" as="geometry" />
        </mxCell>
        <mxCell id="vGDt-VPCg0rbHUkUBXjF-27" value="" style="endArrow=classic;html=1;rounded=0;entryX=0;entryY=0.286;entryDx=0;entryDy=0;entryPerimeter=0;flowAnimation=0;exitX=1;exitY=0.5;exitDx=0;exitDy=0;" parent="vGDt-VPCg0rbHUkUBXjF-23" source="vGDt-VPCg0rbHUkUBXjF-24" target="vGDt-VPCg0rbHUkUBXjF-45" edge="1">
          <mxGeometry width="50" height="50" relative="1" as="geometry">
            <mxPoint x="197" y="69.42" as="sourcePoint" />
            <mxPoint x="252.15999999999985" y="180.57999999999987" as="targetPoint" />
          </mxGeometry>
        </mxCell>
        <mxCell id="vGDt-VPCg0rbHUkUBXjF-28" value="" style="endArrow=classic;html=1;rounded=0;entryX=0;entryY=1;entryDx=0;entryDy=0;exitX=1;exitY=0;exitDx=0;exitDy=0;flowAnimation=0;" parent="vGDt-VPCg0rbHUkUBXjF-23" source="vGDt-VPCg0rbHUkUBXjF-26" target="vGDt-VPCg0rbHUkUBXjF-24" edge="1">
          <mxGeometry width="50" height="50" relative="1" as="geometry">
            <mxPoint x="90" y="160" as="sourcePoint" />
            <mxPoint x="140" y="110" as="targetPoint" />
          </mxGeometry>
        </mxCell>
        <mxCell id="vGDt-VPCg0rbHUkUBXjF-30" value="" style="curved=1;endArrow=classic;html=1;rounded=0;flowAnimation=0;" parent="vGDt-VPCg0rbHUkUBXjF-23" edge="1">
          <mxGeometry width="50" height="50" relative="1" as="geometry">
            <mxPoint x="144" y="50" as="sourcePoint" />
            <mxPoint x="146" y="50" as="targetPoint" />
            <Array as="points">
              <mxPoint x="194" y="50" />
              <mxPoint x="144" />
            </Array>
          </mxGeometry>
        </mxCell>
        <mxCell id="vGDt-VPCg0rbHUkUBXjF-33" value="&lt;span style=&quot;font-size: 7px;&quot;&gt;coin_return &amp;amp;&amp;amp; current_balance &amp;gt; 0&lt;/span&gt;" style="text;html=1;align=center;verticalAlign=middle;resizable=0;points=[];autosize=1;strokeColor=none;fillColor=none;rotation=-75;" parent="vGDt-VPCg0rbHUkUBXjF-23" vertex="1">
          <mxGeometry x="15" y="128" width="130" height="30" as="geometry" />
        </mxCell>
        <mxCell id="vGDt-VPCg0rbHUkUBXjF-34" value="&lt;font style=&quot;font-size: 7px;&quot;&gt;current_balance = 0&lt;/font&gt;" style="text;html=1;align=center;verticalAlign=middle;resizable=0;points=[];autosize=1;strokeColor=none;fillColor=none;" parent="vGDt-VPCg0rbHUkUBXjF-23" vertex="1">
          <mxGeometry x="118" y="-10" width="90" height="30" as="geometry" />
        </mxCell>
        <mxCell id="vGDt-VPCg0rbHUkUBXjF-35" value="&lt;font style=&quot;font-size: 7px;&quot;&gt;coin_sum &amp;gt; 0&lt;/font&gt;" style="text;html=1;align=center;verticalAlign=middle;resizable=0;points=[];autosize=1;strokeColor=none;fillColor=none;" parent="vGDt-VPCg0rbHUkUBXjF-23" vertex="1">
          <mxGeometry x="180" y="65" width="70" height="30" as="geometry" />
        </mxCell>
        <mxCell id="vGDt-VPCg0rbHUkUBXjF-36" value="&lt;font style=&quot;font-size: 7px;&quot;&gt;current_balance &amp;gt; 30&lt;/font&gt;" style="text;html=1;align=center;verticalAlign=middle;resizable=0;points=[];autosize=1;strokeColor=none;fillColor=none;rotation=-60;" parent="vGDt-VPCg0rbHUkUBXjF-23" vertex="1">
          <mxGeometry x="270" y="160" width="90" height="30" as="geometry" />
        </mxCell>
        <mxCell id="vGDt-VPCg0rbHUkUBXjF-37" value="&lt;font style=&quot;font-size: 7px;&quot;&gt;return_coin = 1&lt;/font&gt;" style="text;html=1;align=center;verticalAlign=middle;resizable=0;points=[];autosize=1;strokeColor=none;fillColor=none;rotation=-25;" parent="vGDt-VPCg0rbHUkUBXjF-23" vertex="1">
          <mxGeometry x="145" y="160" width="70" height="30" as="geometry" />
        </mxCell>
        <mxCell id="vGDt-VPCg0rbHUkUBXjF-44" value="&lt;font&gt;Controller&lt;/font&gt;&lt;div&gt;&lt;font&gt;Vending Machine&amp;nbsp;&lt;/font&gt;&lt;/div&gt;" style="text;html=1;align=center;verticalAlign=middle;resizable=0;points=[];autosize=1;strokeColor=none;fillColor=none;" parent="vGDt-VPCg0rbHUkUBXjF-23" vertex="1">
          <mxGeometry x="-2" y="10" width="120" height="40" as="geometry" />
        </mxCell>
        <mxCell id="vGDt-VPCg0rbHUkUBXjF-45" value="&lt;b&gt;&lt;sub&gt;&lt;font style=&quot;font-size: 8px;&quot;&gt;ACCUMULATE&lt;/font&gt;&lt;/sub&gt;&lt;/b&gt;" style="ellipse;whiteSpace=wrap;html=1;aspect=fixed;" parent="vGDt-VPCg0rbHUkUBXjF-23" vertex="1">
          <mxGeometry x="270" y="80" width="70" height="70" as="geometry" />
        </mxCell>
        <mxCell id="vGDt-VPCg0rbHUkUBXjF-46" value="" style="curved=1;endArrow=classic;html=1;rounded=0;flowAnimation=0;exitX=0.926;exitY=0.248;exitDx=0;exitDy=0;exitPerimeter=0;" parent="vGDt-VPCg0rbHUkUBXjF-23" source="vGDt-VPCg0rbHUkUBXjF-45" edge="1">
          <mxGeometry width="50" height="50" relative="1" as="geometry">
            <mxPoint x="367" y="78" as="sourcePoint" />
            <mxPoint x="312" y="80" as="targetPoint" />
            <Array as="points">
              <mxPoint x="360" y="80" />
              <mxPoint x="310" y="30" />
            </Array>
          </mxGeometry>
        </mxCell>
        <mxCell id="vGDt-VPCg0rbHUkUBXjF-47" value="" style="endArrow=classic;html=1;rounded=0;exitX=0;exitY=0.5;exitDx=0;exitDy=0;flowAnimation=0;" parent="vGDt-VPCg0rbHUkUBXjF-23" source="vGDt-VPCg0rbHUkUBXjF-24" target="vGDt-VPCg0rbHUkUBXjF-26" edge="1">
          <mxGeometry width="50" height="50" relative="1" as="geometry">
            <mxPoint x="179" y="192" as="sourcePoint" />
            <mxPoint x="30" y="202" as="targetPoint" />
          </mxGeometry>
        </mxCell>
        <mxCell id="vGDt-VPCg0rbHUkUBXjF-48" value="" style="endArrow=classic;html=1;rounded=0;entryX=0.027;entryY=0.355;entryDx=0;entryDy=0;entryPerimeter=0;exitX=0.668;exitY=0.98;exitDx=0;exitDy=0;exitPerimeter=0;flowAnimation=0;" parent="vGDt-VPCg0rbHUkUBXjF-23" source="vGDt-VPCg0rbHUkUBXjF-45" edge="1">
          <mxGeometry width="50" height="50" relative="1" as="geometry">
            <mxPoint x="349" y="210" as="sourcePoint" />
            <mxPoint x="271.6199999999999" y="210.6500000000001" as="targetPoint" />
          </mxGeometry>
        </mxCell>
        <mxCell id="vGDt-VPCg0rbHUkUBXjF-49" value="" style="endArrow=classic;html=1;rounded=0;entryX=0.488;entryY=0.132;entryDx=0;entryDy=0;entryPerimeter=0;exitX=0.668;exitY=0.98;exitDx=0;exitDy=0;exitPerimeter=0;flowAnimation=0;" parent="vGDt-VPCg0rbHUkUBXjF-23" edge="1">
          <mxGeometry width="50" height="50" relative="1" as="geometry">
            <mxPoint x="285.3800000000001" y="144.18" as="sourcePoint" />
            <mxPoint x="87.27999999999997" y="233.96000000000004" as="targetPoint" />
          </mxGeometry>
        </mxCell>
        <mxCell id="vGDt-VPCg0rbHUkUBXjF-55" value="" style="curved=1;endArrow=classic;html=1;rounded=0;flowAnimation=0;entryX=1;entryY=0.5;entryDx=0;entryDy=0;exitX=0.884;exitY=1.02;exitDx=0;exitDy=0;exitPerimeter=0;" parent="vGDt-VPCg0rbHUkUBXjF-23" target="vGDt-VPCg0rbHUkUBXjF-45" edge="1">
          <mxGeometry width="50" height="50" relative="1" as="geometry">
            <mxPoint x="269.1999999999998" y="270.5999999999999" as="sourcePoint" />
            <mxPoint x="344" y="120" as="targetPoint" />
            <Array as="points">
              <mxPoint x="370" y="310" />
              <mxPoint x="414" y="130" />
              <mxPoint x="364" y="80" />
            </Array>
          </mxGeometry>
        </mxCell>
        <mxCell id="vGDt-VPCg0rbHUkUBXjF-56" value="&lt;font style=&quot;font-size: 7px;&quot;&gt;current_balance &amp;gt; 30&lt;/font&gt;" style="text;html=1;align=center;verticalAlign=middle;resizable=0;points=[];autosize=1;strokeColor=none;fillColor=none;rotation=-60;" parent="vGDt-VPCg0rbHUkUBXjF-23" vertex="1">
          <mxGeometry x="350.00038105676657" y="225.00114317029974" width="90" height="30" as="geometry" />
        </mxCell>
        <mxCell id="vGDt-VPCg0rbHUkUBXjF-57" value="" style="curved=1;endArrow=classic;html=1;rounded=0;flowAnimation=0;entryX=1;entryY=1;entryDx=0;entryDy=0;exitX=0.625;exitY=0.994;exitDx=0;exitDy=0;exitPerimeter=0;" parent="vGDt-VPCg0rbHUkUBXjF-23" source="vGDt-VPCg0rbHUkUBXjF-26" target="vGDt-VPCg0rbHUkUBXjF-26" edge="1">
          <mxGeometry width="50" height="50" relative="1" as="geometry">
            <mxPoint x="80" y="340" as="sourcePoint" />
            <mxPoint x="84" y="320" as="targetPoint" />
            <Array as="points">
              <mxPoint x="120" y="310" />
              <mxPoint x="104" y="280" />
            </Array>
          </mxGeometry>
        </mxCell>
        <mxCell id="vGDt-VPCg0rbHUkUBXjF-58" value="&lt;font style=&quot;font-size: 7px;&quot;&gt;current_balance &amp;gt;=5&lt;/font&gt;" style="text;html=1;align=center;verticalAlign=middle;resizable=0;points=[];autosize=1;strokeColor=none;fillColor=none;rotation=15;" parent="vGDt-VPCg0rbHUkUBXjF-23" vertex="1">
          <mxGeometry x="80.00038105676657" y="260.00114317029977" width="90" height="30" as="geometry" />
        </mxCell>
        <mxCell id="Cse8BFrSxgoBRhWiZOPK-1" value="" style="curved=1;endArrow=classic;html=1;rounded=0;flowAnimation=0;entryX=0.984;entryY=0.234;entryDx=0;entryDy=0;exitX=0;exitY=1;exitDx=0;exitDy=0;entryPerimeter=0;" edge="1" parent="vGDt-VPCg0rbHUkUBXjF-23" source="vGDt-VPCg0rbHUkUBXjF-25" target="vGDt-VPCg0rbHUkUBXjF-24">
          <mxGeometry width="50" height="50" relative="1" as="geometry">
            <mxPoint x="257" y="291.5999999999999" as="sourcePoint" />
            <mxPoint x="327.8000000000002" y="136" as="targetPoint" />
            <Array as="points">
              <mxPoint x="365" y="321" />
              <mxPoint x="432" y="246" />
              <mxPoint x="421" y="82" />
              <mxPoint x="352" y="-12" />
            </Array>
          </mxGeometry>
        </mxCell>
        <mxCell id="vGDt-VPCg0rbHUkUBXjF-60" value="" style="swimlane;startSize=0;movable=1;resizable=1;rotatable=1;deletable=1;editable=1;locked=0;connectable=1;" parent="1" vertex="1">
          <mxGeometry x="-590" y="-570" width="380" height="280" as="geometry">
            <mxRectangle x="-530" y="-540" width="75" height="110" as="alternateBounds" />
          </mxGeometry>
        </mxCell>
        <mxCell id="vGDt-VPCg0rbHUkUBXjF-65" value="" style="endArrow=classic;html=1;rounded=0;exitX=1;exitY=0.5;exitDx=0;exitDy=0;" parent="vGDt-VPCg0rbHUkUBXjF-60" edge="1">
          <mxGeometry width="50" height="50" relative="1" as="geometry">
            <mxPoint x="150" y="136" as="sourcePoint" />
            <mxPoint x="200" y="136" as="targetPoint" />
          </mxGeometry>
        </mxCell>
        <mxCell id="vGDt-VPCg0rbHUkUBXjF-67" value="rst_n" style="text;html=1;align=center;verticalAlign=middle;resizable=0;points=[];autosize=1;strokeColor=none;fillColor=none;" parent="vGDt-VPCg0rbHUkUBXjF-60" vertex="1">
          <mxGeometry x="40" y="160" width="50" height="30" as="geometry" />
        </mxCell>
        <mxCell id="vGDt-VPCg0rbHUkUBXjF-68" value="clk" style="text;html=1;align=center;verticalAlign=middle;resizable=0;points=[];autosize=1;strokeColor=none;fillColor=none;" parent="vGDt-VPCg0rbHUkUBXjF-60" vertex="1">
          <mxGeometry x="50" y="180" width="40" height="30" as="geometry" />
        </mxCell>
        <mxCell id="vGDt-VPCg0rbHUkUBXjF-69" value="Vending&amp;nbsp;&lt;div&gt;Machine&lt;/div&gt;" style="rounded=1;whiteSpace=wrap;html=1;" parent="vGDt-VPCg0rbHUkUBXjF-60" vertex="1">
          <mxGeometry x="200" y="50" width="80" height="218" as="geometry" />
        </mxCell>
        <mxCell id="vGDt-VPCg0rbHUkUBXjF-70" value="" style="endArrow=classic;html=1;rounded=0;" parent="vGDt-VPCg0rbHUkUBXjF-60" edge="1">
          <mxGeometry width="50" height="50" relative="1" as="geometry">
            <mxPoint x="80" y="180" as="sourcePoint" />
            <mxPoint x="200" y="180" as="targetPoint" />
            <Array as="points" />
          </mxGeometry>
        </mxCell>
        <mxCell id="vGDt-VPCg0rbHUkUBXjF-71" value="" style="endArrow=classic;html=1;rounded=0;" parent="vGDt-VPCg0rbHUkUBXjF-60" edge="1">
          <mxGeometry width="50" height="50" relative="1" as="geometry">
            <mxPoint x="80" y="200" as="sourcePoint" />
            <mxPoint x="200" y="200" as="targetPoint" />
            <Array as="points" />
          </mxGeometry>
        </mxCell>
        <mxCell id="vGDt-VPCg0rbHUkUBXjF-72" value="" style="endArrow=classic;html=1;rounded=0;" parent="vGDt-VPCg0rbHUkUBXjF-60" edge="1">
          <mxGeometry width="50" height="50" relative="1" as="geometry">
            <mxPoint x="130" y="220" as="sourcePoint" />
            <mxPoint x="200" y="220" as="targetPoint" />
          </mxGeometry>
        </mxCell>
        <mxCell id="vGDt-VPCg0rbHUkUBXjF-75" value="coin_return" style="text;html=1;align=center;verticalAlign=middle;resizable=0;points=[];autosize=1;strokeColor=none;fillColor=none;" parent="vGDt-VPCg0rbHUkUBXjF-60" vertex="1">
          <mxGeometry x="114" y="199" width="80" height="30" as="geometry" />
        </mxCell>
        <mxCell id="vGDt-VPCg0rbHUkUBXjF-76" value="coin_25" style="text;html=1;align=center;verticalAlign=middle;resizable=0;points=[];autosize=1;strokeColor=none;fillColor=none;" parent="vGDt-VPCg0rbHUkUBXjF-60" vertex="1">
          <mxGeometry x="122" y="106" width="70" height="30" as="geometry" />
        </mxCell>
        <mxCell id="vGDt-VPCg0rbHUkUBXjF-77" value="" style="endArrow=classic;html=1;rounded=0;" parent="vGDt-VPCg0rbHUkUBXjF-60" edge="1">
          <mxGeometry width="50" height="50" relative="1" as="geometry">
            <mxPoint x="140" y="102" as="sourcePoint" />
            <mxPoint x="200" y="102" as="targetPoint" />
          </mxGeometry>
        </mxCell>
        <mxCell id="vGDt-VPCg0rbHUkUBXjF-78" value="" style="endArrow=classic;html=1;rounded=0;" parent="vGDt-VPCg0rbHUkUBXjF-60" edge="1">
          <mxGeometry width="50" height="50" relative="1" as="geometry">
            <mxPoint x="140" y="73" as="sourcePoint" />
            <mxPoint x="200" y="73" as="targetPoint" />
          </mxGeometry>
        </mxCell>
        <mxCell id="vGDt-VPCg0rbHUkUBXjF-79" value="coin_5" style="text;html=1;align=center;verticalAlign=middle;resizable=0;points=[];autosize=1;strokeColor=none;fillColor=none;" parent="vGDt-VPCg0rbHUkUBXjF-60" vertex="1">
          <mxGeometry x="127" y="52" width="60" height="30" as="geometry" />
        </mxCell>
        <mxCell id="vGDt-VPCg0rbHUkUBXjF-80" value="coin_10" style="text;html=1;align=center;verticalAlign=middle;resizable=0;points=[];autosize=1;strokeColor=none;fillColor=none;" parent="vGDt-VPCg0rbHUkUBXjF-60" vertex="1">
          <mxGeometry x="122" y="76" width="70" height="30" as="geometry" />
        </mxCell>
        <mxCell id="vGDt-VPCg0rbHUkUBXjF-81" value="" style="endArrow=classic;html=1;rounded=0;" parent="vGDt-VPCg0rbHUkUBXjF-60" edge="1">
          <mxGeometry width="50" height="50" relative="1" as="geometry">
            <mxPoint x="280" y="110" as="sourcePoint" />
            <mxPoint x="350" y="110" as="targetPoint" />
          </mxGeometry>
        </mxCell>
        <mxCell id="vGDt-VPCg0rbHUkUBXjF-82" value="" style="endArrow=classic;html=1;rounded=0;" parent="vGDt-VPCg0rbHUkUBXjF-60" edge="1">
          <mxGeometry width="50" height="50" relative="1" as="geometry">
            <mxPoint x="280" y="199" as="sourcePoint" />
            <mxPoint x="350" y="199" as="targetPoint" />
          </mxGeometry>
        </mxCell>
        <mxCell id="vGDt-VPCg0rbHUkUBXjF-84" value="Dispense_item" style="text;html=1;align=center;verticalAlign=middle;resizable=0;points=[];autosize=1;strokeColor=none;fillColor=none;" parent="vGDt-VPCg0rbHUkUBXjF-60" vertex="1">
          <mxGeometry x="270" y="82" width="100" height="30" as="geometry" />
        </mxCell>
        <mxCell id="vGDt-VPCg0rbHUkUBXjF-85" value="" style="endArrow=classic;html=1;rounded=0;" parent="vGDt-VPCg0rbHUkUBXjF-60" edge="1">
          <mxGeometry width="50" height="50" relative="1" as="geometry">
            <mxPoint x="280" y="136" as="sourcePoint" />
            <mxPoint x="350" y="136" as="targetPoint" />
          </mxGeometry>
        </mxCell>
        <mxCell id="vGDt-VPCg0rbHUkUBXjF-86" value="Amount_display" style="text;html=1;align=center;verticalAlign=middle;resizable=0;points=[];autosize=1;strokeColor=none;fillColor=none;" parent="vGDt-VPCg0rbHUkUBXjF-60" vertex="1">
          <mxGeometry x="270" y="112" width="110" height="30" as="geometry" />
        </mxCell>
        <mxCell id="vGDt-VPCg0rbHUkUBXjF-88" value="" style="endArrow=classic;html=1;rounded=0;" parent="vGDt-VPCg0rbHUkUBXjF-60" edge="1">
          <mxGeometry width="50" height="50" relative="1" as="geometry">
            <mxPoint x="280" y="169" as="sourcePoint" />
            <mxPoint x="350" y="169" as="targetPoint" />
          </mxGeometry>
        </mxCell>
        <mxCell id="vGDt-VPCg0rbHUkUBXjF-87" value="" style="endArrow=classic;html=1;rounded=0;" parent="vGDt-VPCg0rbHUkUBXjF-60" edge="1">
          <mxGeometry width="50" height="50" relative="1" as="geometry">
            <mxPoint x="280" y="228.13" as="sourcePoint" />
            <mxPoint x="350" y="228.13" as="targetPoint" />
          </mxGeometry>
        </mxCell>
        <mxCell id="vGDt-VPCg0rbHUkUBXjF-89" value="return_5" style="text;html=1;align=center;verticalAlign=middle;resizable=0;points=[];autosize=1;strokeColor=none;fillColor=none;" parent="vGDt-VPCg0rbHUkUBXjF-60" vertex="1">
          <mxGeometry x="280" y="142" width="70" height="30" as="geometry" />
        </mxCell>
        <mxCell id="vGDt-VPCg0rbHUkUBXjF-91" value="return_10" style="text;html=1;align=center;verticalAlign=middle;resizable=0;points=[];autosize=1;strokeColor=none;fillColor=none;" parent="vGDt-VPCg0rbHUkUBXjF-60" vertex="1">
          <mxGeometry x="280" y="172" width="70" height="30" as="geometry" />
        </mxCell>
        <mxCell id="vGDt-VPCg0rbHUkUBXjF-90" value="return_25" style="text;html=1;align=center;verticalAlign=middle;resizable=0;points=[];autosize=1;strokeColor=none;fillColor=none;" parent="vGDt-VPCg0rbHUkUBXjF-60" vertex="1">
          <mxGeometry x="280" y="202" width="70" height="30" as="geometry" />
        </mxCell>
        <mxCell id="vGDt-VPCg0rbHUkUBXjF-92" value="&lt;b&gt;&amp;nbsp;States&lt;span style=&quot;white-space: pre;&quot;&gt;&#x9;&lt;/span&gt;&lt;/b&gt;&lt;span style=&quot;white-space: pre;&quot;&gt;&#x9;&lt;/span&gt;&lt;span style=&quot;white-space: pre;&quot;&gt;&#x9;&lt;/span&gt;&lt;span style=&quot;white-space: pre;&quot;&gt;&#x9;&lt;/span&gt;&lt;span style=&quot;white-space: pre;&quot;&gt;&#x9;&lt;/span&gt;&lt;span style=&quot;white-space: pre;&quot;&gt;&#x9;&lt;/span&gt;&lt;b&gt;INPUTS&amp;nbsp;&lt;/b&gt;&lt;span style=&quot;white-space: pre;&quot;&gt;&#x9;&lt;/span&gt;&lt;span style=&quot;white-space: pre;&quot;&gt;&#x9;&lt;/span&gt;&lt;span style=&quot;white-space: pre;&quot;&gt;&#x9;&lt;/span&gt;&lt;span style=&quot;white-space: pre;&quot;&gt;&#x9;&lt;/span&gt;&lt;span style=&quot;white-space: pre;&quot;&gt;&#x9;&lt;/span&gt;&lt;span style=&quot;white-space: pre;&quot;&gt;&#x9;&lt;/span&gt;&lt;span style=&quot;white-space: pre;&quot;&gt;&#x9;&lt;/span&gt;&lt;span style=&quot;white-space: pre;&quot;&gt;&#x9;&lt;span style=&quot;white-space: pre;&quot;&gt;&#x9;&lt;/span&gt;&lt;span style=&quot;white-space: pre;&quot;&gt;&#x9;&lt;/span&gt;&lt;span style=&quot;white-space: pre;&quot;&gt;&#x9;&lt;/span&gt;&lt;/span&gt;&lt;b&gt;OUTPUTS&lt;/b&gt;&lt;div&gt;&lt;span style=&quot;white-space: pre;&quot;&gt;&#x9;&lt;/span&gt;&lt;span style=&quot;white-space: pre;&quot;&gt;&#x9;&lt;/span&gt;&lt;span style=&quot;white-space: pre;&quot;&gt;&#x9;&lt;/span&gt;&lt;span style=&quot;white-space: pre;&quot;&gt;&#x9;&lt;/span&gt;{ coin_5,&amp;nbsp;coin_10,&amp;nbsp;coin_25,&amp;nbsp;coin_return }&lt;span style=&quot;white-space: pre;&quot;&gt;&#x9;&lt;/span&gt;{&amp;nbsp;dispense_item,&amp;nbsp;return_5,&amp;nbsp;return_10,&amp;nbsp;return_25,&amp;nbsp;[5:0] amount_display }&amp;nbsp;&lt;br&gt;&lt;/div&gt;" style="swimlane;fontStyle=0;childLayout=stackLayout;horizontal=1;startSize=30;horizontalStack=0;resizeParent=1;resizeParentMax=0;resizeLast=0;collapsible=1;marginBottom=0;whiteSpace=wrap;html=1;align=left;" parent="1" vertex="1">
          <mxGeometry x="-680" y="230" width="760" height="150" as="geometry" />
        </mxCell>
        <mxCell id="vGDt-VPCg0rbHUkUBXjF-93" value="IDLE&lt;span style=&quot;white-space: pre;&quot;&gt;&#x9;&lt;/span&gt;&lt;span style=&quot;white-space: pre;&quot;&gt;&#x9;&lt;/span&gt;&lt;span style=&quot;white-space: pre;&quot;&gt;&#x9;&lt;/span&gt;&amp;nbsp; &amp;nbsp; &amp;nbsp; 0&lt;span style=&quot;white-space: pre;&quot;&gt;&#x9;&lt;/span&gt;&amp;nbsp; &amp;nbsp;0&lt;span style=&quot;white-space: pre;&quot;&gt;&#x9;&lt;/span&gt;&amp;nbsp; &amp;nbsp;&lt;span style=&quot;white-space: pre;&quot;&gt;&#x9;&lt;/span&gt;0&amp;nbsp;&lt;span style=&quot;white-space: pre;&quot;&gt;&#x9;&lt;/span&gt;&lt;span style=&quot;white-space: pre;&quot;&gt;&#x9;&lt;/span&gt;0&lt;span style=&quot;white-space: pre;&quot;&gt;&#x9;&lt;/span&gt;&lt;span style=&quot;white-space: pre;&quot;&gt;&#x9;&lt;/span&gt;&lt;span style=&quot;white-space: pre;&quot;&gt;&#x9;&lt;/span&gt;&lt;span style=&quot;white-space: pre;&quot;&gt;&#x9;&lt;/span&gt;&lt;span style=&quot;white-space: pre;&quot;&gt;&#x9;&lt;/span&gt;0&lt;span style=&quot;white-space: pre;&quot;&gt;&#x9;&lt;/span&gt;&lt;span style=&quot;white-space: pre;&quot;&gt;&#x9;&lt;/span&gt;0&lt;span style=&quot;white-space: pre;&quot;&gt;&#x9;&lt;/span&gt;&lt;span style=&quot;white-space: pre;&quot;&gt;&#x9;&lt;/span&gt;0&lt;span style=&quot;white-space: pre;&quot;&gt;&#x9;&lt;/span&gt;&lt;span style=&quot;white-space: pre;&quot;&gt;&#x9;&lt;/span&gt;0&lt;span style=&quot;white-space: pre;&quot;&gt;&#x9;&lt;/span&gt;&lt;span style=&quot;white-space: pre;&quot;&gt;&#x9;&lt;/span&gt;&lt;span style=&quot;white-space: pre;&quot;&gt;&#x9;&lt;/span&gt;current_balance" style="text;strokeColor=none;fillColor=none;align=left;verticalAlign=middle;spacingLeft=4;spacingRight=4;overflow=hidden;points=[[0,0.5],[1,0.5]];portConstraint=eastwest;rotatable=0;whiteSpace=wrap;html=1;" parent="vGDt-VPCg0rbHUkUBXjF-92" vertex="1">
          <mxGeometry y="30" width="760" height="30" as="geometry" />
        </mxCell>
        <mxCell id="vGDt-VPCg0rbHUkUBXjF-94" value="ACCUMULATE&amp;nbsp; &amp;nbsp;&lt;span style=&quot;white-space: pre;&quot;&gt;&#x9;&lt;span style=&quot;white-space: pre;&quot;&gt;&#x9;&lt;/span&gt;1&lt;/span&gt;&amp;nbsp; or&amp;nbsp;&amp;nbsp; &amp;nbsp;1&lt;span style=&quot;white-space: pre;&quot;&gt;&#x9;&lt;/span&gt;or&amp;nbsp; &amp;nbsp;&lt;span style=&quot;white-space: pre;&quot;&gt;&#x9;&lt;/span&gt;1&amp;nbsp;&lt;span style=&quot;white-space: pre;&quot;&gt;&#x9;&lt;/span&gt;&lt;span style=&quot;white-space: pre;&quot;&gt;&#x9;&lt;/span&gt;0&lt;span style=&quot;white-space: pre;&quot;&gt;&#x9;&lt;/span&gt;&lt;span style=&quot;white-space: pre;&quot;&gt;&#x9;&lt;/span&gt;&lt;span style=&quot;white-space: pre;&quot;&gt;&#x9;&lt;/span&gt;&lt;span style=&quot;white-space: pre;&quot;&gt;&#x9;&lt;/span&gt;&lt;span style=&quot;white-space: pre;&quot;&gt;&#x9;&lt;/span&gt;0&lt;span style=&quot;white-space: pre;&quot;&gt;&#x9;&lt;/span&gt;&lt;span style=&quot;white-space: pre;&quot;&gt;&#x9;&lt;/span&gt;0&lt;span style=&quot;white-space: pre;&quot;&gt;&#x9;&lt;/span&gt;&lt;span style=&quot;white-space: pre;&quot;&gt;&#x9;&lt;/span&gt;0&lt;span style=&quot;white-space: pre;&quot;&gt;&#x9;&lt;/span&gt;&lt;span style=&quot;white-space: pre;&quot;&gt;&#x9;&lt;/span&gt;0&lt;span style=&quot;white-space: pre;&quot;&gt;&#x9;&lt;/span&gt;&lt;span style=&quot;white-space: pre;&quot;&gt;&#x9;&lt;/span&gt;&lt;span style=&quot;white-space: pre;&quot;&gt;&#x9;&lt;/span&gt;current_balance" style="text;strokeColor=none;fillColor=none;align=left;verticalAlign=middle;spacingLeft=4;spacingRight=4;overflow=hidden;points=[[0,0.5],[1,0.5]];portConstraint=eastwest;rotatable=0;whiteSpace=wrap;html=1;" parent="vGDt-VPCg0rbHUkUBXjF-92" vertex="1">
          <mxGeometry y="60" width="760" height="30" as="geometry" />
        </mxCell>
        <mxCell id="vGDt-VPCg0rbHUkUBXjF-95" value="DISPENSE&amp;nbsp; &amp;nbsp; &lt;span style=&quot;white-space: pre;&quot;&gt;&#x9;&lt;span style=&quot;white-space: pre;&quot;&gt;&#x9;&lt;/span&gt;&lt;span style=&quot;white-space: pre;&quot;&gt;&#x9;&lt;/span&gt;&lt;/span&gt;0&lt;span style=&quot;white-space: pre;&quot;&gt;&#x9;&lt;/span&gt;&amp;nbsp; &amp;nbsp;0&lt;span style=&quot;white-space: pre;&quot;&gt;&#x9;&lt;/span&gt;&amp;nbsp; &amp;nbsp;&lt;span style=&quot;white-space: pre;&quot;&gt;&#x9;&lt;/span&gt;0&amp;nbsp;&lt;span style=&quot;white-space: pre;&quot;&gt;&#x9;&lt;/span&gt;&lt;span style=&quot;white-space: pre;&quot;&gt;&#x9;&lt;/span&gt;0&lt;span style=&quot;white-space: pre;&quot;&gt;&#x9;&lt;/span&gt;&lt;span style=&quot;white-space: pre;&quot;&gt;&#x9;&lt;/span&gt;&lt;span style=&quot;white-space: pre;&quot;&gt;&#x9;&lt;/span&gt;&lt;span style=&quot;white-space: pre;&quot;&gt;&#x9;&lt;/span&gt;&lt;span style=&quot;white-space: pre;&quot;&gt;&#x9;&lt;/span&gt;1&lt;span style=&quot;white-space: pre;&quot;&gt;&#x9;&lt;/span&gt;&lt;span style=&quot;white-space: pre;&quot;&gt;&#x9;&lt;/span&gt;0&lt;span style=&quot;white-space: pre;&quot;&gt;&#x9;&lt;/span&gt;&lt;span style=&quot;white-space: pre;&quot;&gt;&#x9;&lt;/span&gt;0&lt;span style=&quot;white-space: pre;&quot;&gt;&#x9;&lt;/span&gt;&lt;span style=&quot;white-space: pre;&quot;&gt;&#x9;&lt;/span&gt;0&lt;span style=&quot;white-space: pre;&quot;&gt;&#x9;&lt;/span&gt;&lt;span style=&quot;white-space: pre;&quot;&gt;&#x9;&lt;/span&gt;&lt;span style=&quot;white-space: pre;&quot;&gt;&#x9;&lt;/span&gt;current_balance" style="text;strokeColor=none;fillColor=none;align=left;verticalAlign=middle;spacingLeft=4;spacingRight=4;overflow=hidden;points=[[0,0.5],[1,0.5]];portConstraint=eastwest;rotatable=0;whiteSpace=wrap;html=1;" parent="vGDt-VPCg0rbHUkUBXjF-92" vertex="1">
          <mxGeometry y="90" width="760" height="30" as="geometry" />
        </mxCell>
        <mxCell id="vGDt-VPCg0rbHUkUBXjF-96" value="RETURN_COINS&amp;nbsp; &amp;nbsp;&lt;span style=&quot;white-space: pre;&quot;&gt;&#x9;&lt;/span&gt;&lt;span style=&quot;white-space: pre;&quot;&gt;&#x9;&lt;/span&gt;0&lt;span style=&quot;white-space: pre;&quot;&gt;&#x9;&lt;/span&gt;&amp;nbsp; &amp;nbsp;0&lt;span style=&quot;white-space: pre;&quot;&gt;&#x9;&lt;/span&gt;&amp;nbsp; &amp;nbsp;&lt;span style=&quot;white-space: pre;&quot;&gt;&#x9;&lt;/span&gt;0&amp;nbsp;&lt;span style=&quot;white-space: pre;&quot;&gt;&#x9;&lt;/span&gt;&lt;span style=&quot;white-space: pre;&quot;&gt;&#x9;&lt;/span&gt;1&lt;span style=&quot;white-space: pre;&quot;&gt;&#x9;&lt;/span&gt;&lt;span style=&quot;white-space: pre;&quot;&gt;&#x9;&lt;/span&gt;&lt;span style=&quot;white-space: pre;&quot;&gt;&#x9;&lt;/span&gt;&lt;span style=&quot;white-space: pre;&quot;&gt;&#x9;&lt;/span&gt;&lt;span style=&quot;white-space: pre;&quot;&gt;&#x9;&lt;/span&gt;0&lt;span style=&quot;white-space: pre;&quot;&gt;&#x9;&lt;/span&gt;&lt;span style=&quot;white-space: pre;&quot;&gt;&#x9;&lt;/span&gt;1&lt;span style=&quot;white-space: pre;&quot;&gt;&#x9;&lt;/span&gt;or&lt;span style=&quot;white-space: pre;&quot;&gt;&#x9;&lt;/span&gt;1&lt;span style=&quot;white-space: pre;&quot;&gt;&#x9;&lt;/span&gt;or&lt;span style=&quot;white-space: pre;&quot;&gt;&#x9;&lt;/span&gt;1&lt;span style=&quot;white-space: pre;&quot;&gt;&#x9;&lt;/span&gt;&lt;span style=&quot;white-space: pre;&quot;&gt;&#x9;&lt;/span&gt;&lt;span style=&quot;white-space: pre;&quot;&gt;&#x9;&lt;/span&gt;current_balance" style="text;strokeColor=none;fillColor=none;align=left;verticalAlign=middle;spacingLeft=4;spacingRight=4;overflow=hidden;points=[[0,0.5],[1,0.5]];portConstraint=eastwest;rotatable=0;whiteSpace=wrap;html=1;" parent="vGDt-VPCg0rbHUkUBXjF-92" vertex="1">
          <mxGeometry y="120" width="760" height="30" as="geometry" />
        </mxCell>
      </root>
    </mxGraphModel>
  </diagram>
</mxfile>
